<svg width="56" height="28" viewBox="0 0 56 28" fill="none" xmlns="http://www.w3.org/2000/svg">
<path d="M7.639 5h2.164v2.164H7.639zM18.195 5h2.164v2.164H18.195zM7.639 7.639h2.164v2.164H7.639zM18.195 7.639h2.164v2.164H18.195zM7.639 10.278h2.164v2.164H7.639zM18.195 10.278h2.164v2.164H18.195zM7.639 12.917h2.164v2.164H7.639zM10.278 12.917h2.164v2.164H10.278zM12.917 12.917h2.164v2.164H12.917zM15.556 12.917h2.164v2.164H15.556zM18.195 12.917h2.164v2.164H18.195zM7.639 15.556h2.164v2.164H7.639zM18.195 15.556h2.164v2.164H18.195zM7.639 18.195h2.164v2.164H7.639zM18.195 18.195h2.164v2.164H18.195zM7.639 20.834h2.164v2.164H7.639zM18.195 20.834h2.164v2.164H18.195z" fill="white"/>
<path d="M35.639 5h2.164v2.164H35.639zM46.195 5h2.164v2.164H46.195zM35.639 7.639h2.164v2.164H35.639zM46.195 7.639h2.164v2.164H46.195zM35.639 10.278h2.164v2.164H35.639zM38.278 10.278h2.164v2.164H38.278zM43.556 10.278h2.164v2.164H43.556zM46.195 10.278h2.164v2.164H46.195zM35.639 12.917h2.164v2.164H35.639zM40.917 12.917h2.164v2.164H40.917zM46.195 12.917h2.164v2.164H46.195zM35.639 15.556h2.164v2.164H35.639zM46.195 15.556h2.164v2.164H46.195zM35.639 18.195h2.164v2.164H35.639zM46.195 18.195h2.164v2.164H46.195zM35.639 20.834h2.164v2.164H35.639zM46.195 20.834h2.164v2.164H46.195z" fill="white"/>
</svg>
