<svg width="65" height="32" viewBox="0 0 65 32" fill="none" xmlns="http://www.w3.org/2000/svg">
<rect width="32" height="32" rx="4" fill="white"/>
<path d="M8.25807 5H10.8387C10.8602 5 10.871 5 10.871 5C10.871 5 10.871 5.01075 10.871 5.03226V7.6129C10.871 7.63441 10.871 7.64516 10.871 7.64516C10.871 7.64516 10.8602 7.64516 10.8387 7.64516H8.25807C8.23656 7.64516 8.22581 7.64516 8.22581 7.64516C8.22581 7.64516 8.22581 7.63441 8.22581 7.6129V5.03226C8.22581 5.01075 8.22581 5 8.22581 5C8.22581 5 8.23656 5 8.25807 5ZM21.1613 5H23.7419C23.7634 5 23.7742 5 23.7742 5C23.7742 5 23.7742 5.01075 23.7742 5.03226V7.6129C23.7742 7.63441 23.7742 7.64516 23.7742 7.64516C23.7742 7.64516 23.7634 7.64516 23.7419 7.64516H21.1613C21.1398 7.64516 21.129 7.64516 21.129 7.64516C21.129 7.64516 21.129 7.63441 21.129 7.6129V5.03226C21.129 5.01075 21.129 5 21.129 5C21.129 5 21.1398 5 21.1613 5ZM8.25807 8.22581H10.8387C10.8602 8.22581 10.871 8.22581 10.871 8.22581C10.871 8.22581 10.871 8.23657 10.871 8.25807V10.8387C10.871 10.8602 10.871 10.871 10.871 10.871C10.871 10.871 10.8602 10.871 10.8387 10.871H8.25807C8.23656 10.871 8.22581 10.871 8.22581 10.871C8.22581 10.871 8.22581 10.8602 8.22581 10.8387V8.25807C8.22581 8.23657 8.22581 8.22581 8.22581 8.22581C8.22581 8.22581 8.23656 8.22581 8.25807 8.22581ZM21.1613 8.22581H23.7419C23.7634 8.22581 23.7742 8.22581 23.7742 8.22581C23.7742 8.22581 23.7742 8.23657 23.7742 8.25807V10.8387C23.7742 10.8602 23.7742 10.871 23.7742 10.871C23.7742 10.871 23.7634 10.871 23.7419 10.871H21.1613C21.1398 10.871 21.129 10.871 21.129 10.871C21.129 10.871 21.129 10.8602 21.129 10.8387V8.25807C21.129 8.23657 21.129 8.22581 21.129 8.22581C21.129 8.22581 21.1398 8.22581 21.1613 8.22581ZM8.25807 11.4516H10.8387C10.8602 11.4516 10.871 11.4516 10.871 11.4516C10.871 11.4516 10.871 11.4624 10.871 11.4839V14.0645C10.871 14.086 10.871 14.0968 10.871 14.0968C10.871 14.0968 10.8602 14.0968 10.8387 14.0968H8.25807C8.23656 14.0968 8.22581 14.0968 8.22581 14.0968C8.22581 14.0968 8.22581 14.086 8.22581 14.0645V11.4839C8.22581 11.4624 8.22581 11.4516 8.22581 11.4516C8.22581 11.4516 8.23656 11.4516 8.25807 11.4516ZM21.1613 11.4516H23.7419C23.7634 11.4516 23.7742 11.4516 23.7742 11.4516C23.7742 11.4516 23.7742 11.4624 23.7742 11.4839V14.0645C23.7742 14.086 23.7742 14.0968 23.7742 14.0968C23.7742 14.0968 23.7634 14.0968 23.7419 14.0968H21.1613C21.1398 14.0968 21.129 14.0968 21.129 14.0968C21.129 14.0968 21.129 14.086 21.129 14.0645V11.4839C21.129 11.4624 21.129 11.4516 21.129 11.4516C21.129 11.4516 21.1398 11.4516 21.1613 11.4516ZM8.25807 14.6774H10.8387C10.8602 14.6774 10.871 14.6774 10.871 14.6774C10.871 14.6774 10.871 14.6882 10.871 14.7097V17.2903C10.871 17.3118 10.871 17.3226 10.871 17.3226C10.871 17.3226 10.8602 17.3226 10.8387 17.3226H8.25807C8.23656 17.3226 8.22581 17.3226 8.22581 17.3226C8.22581 17.3226 8.22581 17.3118 8.22581 17.2903V14.7097C8.22581 14.6882 8.22581 14.6774 8.22581 14.6774C8.22581 14.6774 8.23656 14.6774 8.25807 14.6774ZM11.4839 14.6774H14.0645C14.086 14.6774 14.0968 14.6774 14.0968 14.6774C14.0968 14.6774 14.0968 14.6882 14.0968 14.7097V17.2903C14.0968 17.3118 14.0968 17.3226 14.0968 17.3226C14.0968 17.3226 14.086 17.3226 14.0645 17.3226H11.4839C11.4624 17.3226 11.4516 17.3226 11.4516 17.3226C11.4516 17.3226 11.4516 17.3118 11.4516 17.2903V14.7097C11.4516 14.6882 11.4516 14.6774 11.4516 14.6774C11.4516 14.6774 11.4624 14.6774 11.4839 14.6774ZM14.7097 14.6774H17.2903C17.3118 14.6774 17.3226 14.6774 17.3226 14.6774C17.3226 14.6774 17.3226 14.6882 17.3226 14.7097V17.2903C17.3226 17.3118 17.3226 17.3226 17.3226 17.3226C17.3226 17.3226 17.3118 17.3226 17.2903 17.3226H14.7097C14.6882 17.3226 14.6774 17.3226 14.6774 17.3226C14.6774 17.3226 14.6774 17.3118 14.6774 17.2903V14.7097C14.6774 14.6882 14.6774 14.6774 14.6774 14.6774C14.6774 14.6774 14.6882 14.6774 14.7097 14.6774ZM17.9355 14.6774H20.5161C20.5376 14.6774 20.5484 14.6774 20.5484 14.6774C20.5484 14.6774 20.5484 14.6882 20.5484 14.7097V17.2903C20.5484 17.3118 20.5484 17.3226 20.5484 17.3226C20.5484 17.3226 20.5376 17.3226 20.5161 17.3226H17.9355C17.914 17.3226 17.9032 17.3226 17.9032 17.3226C17.9032 17.3226 17.9032 17.3118 17.9032 17.2903V14.7097C17.9032 14.6882 17.9032 14.6774 17.9032 14.6774C17.9032 14.6774 17.914 14.6774 17.9355 14.6774ZM21.1613 14.6774H23.7419C23.7634 14.6774 23.7742 14.6774 23.7742 14.6774C23.7742 14.6774 23.7742 14.6882 23.7742 14.7097V17.2903C23.7742 17.3118 23.7742 17.3226 23.7742 17.3226C23.7742 17.3226 23.7634 17.3226 23.7419 17.3226H21.1613C21.1398 17.3226 21.129 17.3226 21.129 17.3226C21.129 17.3226 21.129 17.3118 21.129 17.2903V14.7097C21.129 14.6882 21.129 14.6774 21.129 14.6774C21.129 14.6774 21.1398 14.6774 21.1613 14.6774ZM8.25807 17.9032H10.8387C10.8602 17.9032 10.871 17.9032 10.871 17.9032C10.871 17.9032 10.871 17.914 10.871 17.9355V20.5161C10.871 20.5376 10.871 20.5484 10.871 20.5484C10.871 20.5484 10.8602 20.5484 10.8387 20.5484H8.25807C8.23656 20.5484 8.22581 20.5484 8.22581 20.5484C8.22581 20.5484 8.22581 20.5376 8.22581 20.5161V17.9355C8.22581 17.914 8.22581 17.9032 8.22581 17.9032C8.22581 17.9032 8.23656 17.9032 8.25807 17.9032ZM21.1613 17.9032H23.7419C23.7634 17.9032 23.7742 17.9032 23.7742 17.9032C23.7742 17.9032 23.7742 17.914 23.7742 17.9355V20.5161C23.7742 20.5376 23.7742 20.5484 23.7742 20.5484C23.7742 20.5484 23.7634 20.5484 23.7419 20.5484H21.1613C21.1398 20.5484 21.129 20.5484 21.129 20.5484C21.129 20.5484 21.129 20.5376 21.129 20.5161V17.9355C21.129 17.914 21.129 17.9032 21.129 17.9032C21.129 17.9032 21.1398 17.9032 21.1613 17.9032ZM8.25807 21.129H10.8387C10.8602 21.129 10.871 21.129 10.871 21.129C10.871 21.129 10.871 21.1398 10.871 21.1613V23.7419C10.871 23.7634 10.871 23.7742 10.871 23.7742C10.871 23.7742 10.8602 23.7742 10.8387 23.7742H8.25807C8.23656 23.7742 8.22581 23.7742 8.22581 23.7742C8.22581 23.7742 8.22581 23.7634 8.22581 23.7419V21.1613C8.22581 21.1398 8.22581 21.129 8.22581 21.129C8.22581 21.129 8.23656 21.129 8.25807 21.129ZM21.1613 21.129H23.7419C23.7634 21.129 23.7742 21.129 23.7742 21.129C23.7742 21.129 23.7742 21.1398 23.7742 21.1613V23.7419C23.7742 23.7634 23.7742 23.7742 23.7742 23.7742C23.7742 23.7742 23.7634 23.7742 23.7419 23.7742H21.1613C21.1398 23.7742 21.129 23.7742 21.129 23.7742C21.129 23.7742 21.129 23.7634 21.129 23.7419V21.1613C21.129 21.1398 21.129 21.129 21.129 21.129C21.129 21.129 21.1398 21.129 21.1613 21.129ZM8.25807 24.3548H10.8387C10.8602 24.3548 10.871 24.3548 10.871 24.3548C10.871 24.3548 10.871 24.3656 10.871 24.3871V26.9677C10.871 26.9893 10.871 27 10.871 27C10.871 27 10.8602 27 10.8387 27H8.25807C8.23656 27 8.22581 27 8.22581 27C8.22581 27 8.22581 26.9893 8.22581 26.9677V24.3871C8.22581 24.3656 8.22581 24.3548 8.22581 24.3548C8.22581 24.3548 8.23656 24.3548 8.25807 24.3548ZM21.1613 24.3548H23.7419C23.7634 24.3548 23.7742 24.3548 23.7742 24.3548C23.7742 24.3548 23.7742 24.3656 23.7742 24.3871V26.9677C23.7742 26.9893 23.7742 27 23.7742 27C23.7742 27 23.7634 27 23.7419 27H21.1613C21.1398 27 21.129 27 21.129 27C21.129 27 21.129 26.9893 21.129 26.9677V24.3871C21.129 24.3656 21.129 24.3548 21.129 24.3548C21.129 24.3548 21.1398 24.3548 21.1613 24.3548Z" fill="black"/>
<rect x="33.5" y="0.5" width="31" height="31" rx="15.5" stroke="white"/>
<path d="M41.2581 5H43.8387C43.8602 5 43.871 5 43.871 5C43.871 5 43.871 5.01075 43.871 5.03226V7.6129C43.871 7.63441 43.871 7.64516 43.871 7.64516C43.871 7.64516 43.8602 7.64516 43.8387 7.64516H41.2581C41.2366 7.64516 41.2258 7.64516 41.2258 7.64516C41.2258 7.64516 41.2258 7.63441 41.2258 7.6129V5.03226C41.2258 5.01075 41.2258 5 41.2258 5C41.2258 5 41.2366 5 41.2581 5ZM54.1613 5H56.7419C56.7634 5 56.7742 5 56.7742 5C56.7742 5 56.7742 5.01075 56.7742 5.03226V7.6129C56.7742 7.63441 56.7742 7.64516 56.7742 7.64516C56.7742 7.64516 56.7634 7.64516 56.7419 7.64516H54.1613C54.1398 7.64516 54.129 7.64516 54.129 7.64516C54.129 7.64516 54.129 7.63441 54.129 7.6129V5.03226C54.129 5.01075 54.129 5 54.129 5C54.129 5 54.1398 5 54.1613 5ZM41.2581 8.22581H43.8387C43.8602 8.22581 43.871 8.22581 43.871 8.22581C43.871 8.22581 43.871 8.23657 43.871 8.25807V10.8387C43.871 10.8602 43.871 10.871 43.871 10.871C43.871 10.871 43.8602 10.871 43.8387 10.871H41.2581C41.2366 10.871 41.2258 10.871 41.2258 10.871C41.2258 10.871 41.2258 10.8602 41.2258 10.8387V8.25807C41.2258 8.23657 41.2258 8.22581 41.2258 8.22581C41.2258 8.22581 41.2366 8.22581 41.2581 8.22581ZM54.1613 8.22581H56.7419C56.7634 8.22581 56.7742 8.22581 56.7742 8.22581C56.7742 8.22581 56.7742 8.23657 56.7742 8.25807V10.8387C56.7742 10.8602 56.7742 10.871 56.7742 10.871C56.7742 10.871 56.7634 10.871 56.7419 10.871H54.1613C54.1398 10.871 54.129 10.871 54.129 10.871C54.129 10.871 54.129 10.8602 54.129 10.8387V8.25807C54.129 8.23657 54.129 8.22581 54.129 8.22581C54.129 8.22581 54.1398 8.22581 54.1613 8.22581ZM41.2581 11.4516H43.8387C43.8602 11.4516 43.871 11.4516 43.871 11.4516C43.871 11.4516 43.871 11.4624 43.871 11.4839V14.0645C43.871 14.086 43.871 14.0968 43.871 14.0968C43.871 14.0968 43.8602 14.0968 43.8387 14.0968H41.2581C41.2366 14.0968 41.2258 14.0968 41.2258 14.0968C41.2258 14.0968 41.2258 14.086 41.2258 14.0645V11.4839C41.2258 11.4624 41.2258 11.4516 41.2258 11.4516C41.2258 11.4516 41.2366 11.4516 41.2581 11.4516ZM44.4839 11.4516H47.0645C47.086 11.4516 47.0968 11.4516 47.0968 11.4516C47.0968 11.4516 47.0968 11.4624 47.0968 11.4839V14.0645C47.0968 14.086 47.0968 14.0968 47.0968 14.0968C47.0968 14.0968 47.086 14.0968 47.0645 14.0968H44.4839C44.4624 14.0968 44.4516 14.0968 44.4516 14.0968C44.4516 14.0968 44.4516 14.086 44.4516 14.0645V11.4839C44.4516 11.4624 44.4516 11.4516 44.4516 11.4516C44.4516 11.4516 44.4624 11.4516 44.4839 11.4516ZM50.9355 11.4516H53.5161C53.5376 11.4516 53.5484 11.4516 53.5484 11.4516C53.5484 11.4516 53.5484 11.4624 53.5484 11.4839V14.0645C53.5484 14.086 53.5484 14.0968 53.5484 14.0968C53.5484 14.0968 53.5376 14.0968 53.5161 14.0968H50.9355C50.914 14.0968 50.9032 14.0968 50.9032 14.0968C50.9032 14.0968 50.9032 14.086 50.9032 14.0645V11.4839C50.9032 11.4624 50.9032 11.4516 50.9032 11.4516C50.9032 11.4516 50.914 11.4516 50.9355 11.4516ZM54.1613 11.4516H56.7419C56.7634 11.4516 56.7742 11.4516 56.7742 11.4516C56.7742 11.4516 56.7742 11.4624 56.7742 11.4839V14.0645C56.7742 14.086 56.7742 14.0968 56.7742 14.0968C56.7742 14.0968 56.7634 14.0968 56.7419 14.0968H54.1613C54.1398 14.0968 54.129 14.0968 54.129 14.0968C54.129 14.0968 54.129 14.086 54.129 14.0645V11.4839C54.129 11.4624 54.129 11.4516 54.129 11.4516C54.129 11.4516 54.1398 11.4516 54.1613 11.4516ZM41.2581 14.6774H43.8387C43.8602 14.6774 43.871 14.6774 43.871 14.6774C43.871 14.6774 43.871 14.6882 43.871 14.7097V17.2903C43.871 17.3118 43.871 17.3226 43.871 17.3226C43.871 17.3226 43.8602 17.3226 43.8387 17.3226H41.2581C41.2366 17.3226 41.2258 17.3226 41.2258 17.3226C41.2258 17.3226 41.2258 17.3118 41.2258 17.2903V14.7097C41.2258 14.6882 41.2258 14.6774 41.2258 14.6774C41.2258 14.6774 41.2366 14.6774 41.2581 14.6774ZM47.7097 14.6774H50.2903C50.3118 14.6774 50.3226 14.6774 50.3226 14.6774C50.3226 14.6774 50.3226 14.6882 50.3226 14.7097V17.2903C50.3226 17.3118 50.3226 17.3226 50.3226 17.3226C50.3226 17.3226 50.3118 17.3226 50.2903 17.3226H47.7097C47.6882 17.3226 47.6774 17.3226 47.6774 17.3226C47.6774 17.3226 47.6774 17.3118 47.6774 17.2903V14.7097C47.6774 14.6882 47.6774 14.6774 47.6774 14.6774C47.6774 14.6774 47.6882 14.6774 47.7097 14.6774ZM54.1613 14.6774H56.7419C56.7634 14.6774 56.7742 14.6774 56.7742 14.6774C56.7742 14.6774 56.7742 14.6882 56.7742 14.7097V17.2903C56.7742 17.3118 56.7742 17.3226 56.7742 17.3226C56.7742 17.3226 56.7634 17.3226 56.7419 17.3226H54.1613C54.1398 17.3226 54.129 17.3226 54.129 17.3226C54.129 17.3226 54.129 17.3118 54.129 17.2903V14.7097C54.129 14.6882 54.129 14.6774 54.129 14.6774C54.129 14.6774 54.1398 14.6774 54.1613 14.6774ZM41.2581 17.9032H43.8387C43.8602 17.9032 43.871 17.9032 43.871 17.9032C43.871 17.9032 43.871 17.914 43.871 17.9355V20.5161C43.871 20.5376 43.871 20.5484 43.871 20.5484C43.871 20.5484 43.8602 20.5484 43.8387 20.5484H41.2581C41.2366 20.5484 41.2258 20.5484 41.2258 20.5484C41.2258 20.5484 41.2258 20.5376 41.2258 20.5161V17.9355C41.2258 17.914 41.2258 17.9032 41.2258 17.9032C41.2258 17.9032 41.2366 17.9032 41.2581 17.9032ZM54.1613 17.9032H56.7419C56.7634 17.9032 56.7742 17.9032 56.7742 17.9032C56.7742 17.9032 56.7742 17.914 56.7742 17.9355V20.5161C56.7742 20.5376 56.7742 20.5484 56.7742 20.5484C56.7742 20.5484 56.7634 20.5484 56.7419 20.5484H54.1613C54.1398 20.5484 54.129 20.5484 54.129 20.5484C54.129 20.5484 54.129 20.5376 54.129 20.5161V17.9355C54.129 17.914 54.129 17.9032 54.129 17.9032C54.129 17.9032 54.1398 17.9032 54.1613 17.9032ZM41.2581 21.129H43.8387C43.8602 21.129 43.871 21.129 43.871 21.129C43.871 21.129 43.871 21.1398 43.871 21.1613V23.7419C43.871 23.7634 43.871 23.7742 43.871 23.7742C43.871 23.7742 43.8602 23.7742 43.8387 23.7742H41.2581C41.2366 23.7742 41.2258 23.7742 41.2258 23.7742C41.2258 23.7742 41.2258 23.7634 41.2258 23.7419V21.1613C41.2258 21.1398 41.2258 21.129 41.2258 21.129C41.2258 21.129 41.2366 21.129 41.2581 21.129ZM54.1613 21.129H56.7419C56.7634 21.129 56.7742 21.129 56.7742 21.129C56.7742 21.129 56.7742 21.1398 56.7742 21.1613V23.7419C56.7742 23.7634 56.7742 23.7742 56.7742 23.7742C56.7742 23.7742 56.7634 23.7742 56.7419 23.7742H54.1613C54.1398 23.7742 54.129 23.7742 54.129 23.7742C54.129 23.7742 54.129 23.7634 54.129 23.7419V21.1613C54.129 21.1398 54.129 21.129 54.129 21.129C54.129 21.129 54.1398 21.129 54.1613 21.129ZM41.2581 24.3548H43.8387C43.8602 24.3548 43.871 24.3548 43.871 24.3548C43.871 24.3548 43.871 24.3656 43.871 24.3871V26.9677C43.871 26.9893 43.871 27 43.871 27C43.871 27 43.8602 27 43.8387 27H41.2581C41.2366 27 41.2258 27 41.2258 27C41.2258 27 41.2258 26.9893 41.2258 26.9677V24.3871C41.2258 24.3656 41.2258 24.3548 41.2258 24.3548C41.2258 24.3548 41.2366 24.3548 41.2581 24.3548ZM54.1613 24.3548H56.7419C56.7634 24.3548 56.7742 24.3548 56.7742 24.3548C56.7742 24.3548 56.7742 24.3656 56.7742 24.3871V26.9677C56.7742 26.9893 56.7742 27 56.7742 27C56.7742 27 56.7634 27 56.7419 27H54.1613C54.1398 27 54.129 27 54.129 27C54.129 27 54.129 26.9893 54.129 26.9677V24.3871C54.129 24.3656 54.129 24.3548 54.129 24.3548C54.129 24.3548 54.1398 24.3548 54.1613 24.3548Z" fill="white"/>
</svg>
